<svg width="193" height="28" viewBox="0 0 193 28" fill="none" xmlns="http://www.w3.org/2000/svg">
<path d="M70.3427 25.7097H65.4507V8.35905H59.124V4.16572H76.6694V8.35905H70.3427V25.7097Z" fill="white"/>
<path d="M96.228 25.7095H91.3066V4.16553H96.228V25.7095Z" fill="white"/>
<path d="M183.065 21.4583H191.575V25.7103H178.145V4.16627H183.065V21.4583Z" fill="white"/>
<path d="M112.609 4.16572H120.581C126.463 4.16572 132.315 7.28038 132.315 14.879C132.315 22.0417 126.579 25.7097 120.872 25.7097H112.609V4.16572ZM117.384 21.487H120.436C124.541 21.487 127.277 18.9257 127.277 14.8497C127.277 10.9777 124.512 8.35905 120.552 8.35905H117.384V21.487Z" fill="white"/>
<path d="M159.623 25.7097H165.033L156.157 4.16572H151.077L142.115 25.7097H147.378L148.966 21.4591H158.05L159.623 25.7097ZM150.285 17.6311L153.53 9.20572L156.745 17.6311H150.285Z" fill="white"/>
<path d="M26.2243 7.30478L19.919 13.6115L13.6123 7.30478L19.919 1.00078L26.2243 7.30478Z" fill="white"/>
<path d="M26.2243 19.9173L19.919 26.224L13.6123 19.9173L19.919 13.6107L26.2243 19.9173Z" fill="white"/>
<path d="M13.612 7.30533L7.30533 13.612L1 7.30533L7.30533 1L13.612 7.30533Z" fill="white"/>
<path d="M38.8347 7.30533L32.5293 13.612L26.2227 7.30533L32.5293 1L38.8347 7.30533Z" fill="white"/>
</svg>
