<svg width="1000" height="192" viewBox="0 0 1000 192" fill="none" xmlns="http://www.w3.org/2000/svg">
<g clip-path="url(#clip0)">
<path d="M234.1 126.944C234.1 167.044 258.8 191.044 295.5 191.044C313.8 191.044 329.2 185.944 337.8 172.544V191.044H371.3V0.0438232H336.5V81.2438C328.6 67.8438 314 61.8438 295.7 61.8438C259.9 61.7438 234.1 86.2438 234.1 126.944ZM337.6 126.944C337.6 149.844 322 164.144 303.3 164.144C283.9 164.144 269 149.844 269 126.944C269 103.644 284 89.0438 303.3 89.0438C322 89.0438 337.6 103.844 337.6 126.944Z" fill="white"/>
<path d="M479.6 141.744C475.6 156.544 465.5 163.944 449.6 163.944C431.1 163.944 415.9 152.744 415.5 132.944H503.2C504.3 128.044 504.8 122.844 504.8 117.144C504.8 81.6438 480.6 61.6438 444.9 61.6438C406.8 61.6438 380.6 88.7438 380.6 125.544C380.6 166.544 409.5 191.144 449.5 191.144C479.7 191.144 500.2 178.544 509.2 153.444L479.6 141.744ZM415.5 109.744C418.8 95.4438 430.7 87.0438 445 87.0438C460.6 87.0438 471.2 95.4438 471.2 108.644L471 109.744H415.5V109.744Z" fill="white"/>
<path d="M608.7 141.744C604.7 156.544 594.6 163.944 578.7 163.944C560.2 163.944 545 152.744 544.6 132.944H632.3C633.4 128.044 633.9 122.844 633.9 117.144C633.9 81.6438 609.7 61.6438 574 61.6438C535.9 61.6438 509.7 88.7438 509.7 125.544C509.7 166.544 538.6 191.144 578.6 191.144C608.8 191.144 629.3 178.544 638.3 153.444L608.7 141.744ZM544.6 109.744C547.9 95.4438 559.8 87.0438 574.1 87.0438C589.7 87.0438 600.3 95.4438 600.3 108.644L600.1 109.744H544.6V109.744Z" fill="white"/>
<path d="M756.7 191.244V159.744H683.6L754.7 90.5438V61.7438H642.2V91.7438H710.9L640 161.244V191.244H756.7Z" fill="white"/>
<path d="M858.4 141.744C854.4 156.544 844.3 163.944 828.4 163.944C809.9 163.944 794.7 152.744 794.3 132.944H882C883.1 128.044 883.6 122.844 883.6 117.144C883.6 81.6438 859.4 61.6438 823.7 61.6438C785.6 61.6438 759.4 88.7438 759.4 125.544C759.4 166.544 788.3 191.144 828.3 191.144C858.5 191.144 879 178.544 888 153.444L858.4 141.744ZM794.3 109.744C797.6 95.4438 809.5 87.0438 823.8 87.0438C839.4 87.0438 850 95.4438 850 108.644L849.8 109.744H794.3V109.744Z" fill="white"/>
<path d="M198.4 61.7438H155.5V86.8438H198.4V61.7438Z" fill="#40AB5D"/>
<path d="M198.4 96.5438H155.5V121.644H198.4V96.5438Z" fill="url(#paint0_linear)"/>
<path d="M198.4 131.344H155.5V156.444H198.4V131.344Z" fill="url(#paint1_linear)"/>
<path d="M42.9 166.144H0V191.244H42.9V166.144Z" fill="url(#paint2_linear)"/>
<path d="M94.6998 166.144H51.7998V191.244H94.6998V166.144Z" fill="url(#paint3_linear)"/>
<path d="M146.6 166.144H103.7V191.244H146.6V166.144Z" fill="url(#paint4_linear)"/>
<path d="M198.4 166.144H155.5V191.244H198.4V166.144Z" fill="url(#paint5_linear)"/>
<path d="M146.6 131.344H103.7V156.444H146.6V131.344Z" fill="url(#paint6_linear)"/>
<path d="M94.6998 131.344H51.7998V156.444H94.6998V131.344Z" fill="url(#paint7_linear)"/>
<path d="M94.6998 96.5438H51.7998V121.644H94.6998V96.5438Z" fill="url(#paint8_linear)"/>
<path d="M966.1 106.444C966.1 107.744 966.1 110.144 966.1 110.144H1000C1000 110.144 1000 103.744 1000 100.244C1000 78.0438 986.1 61.9438 962.8 61.9438C947.8 61.9438 937.2 69.2438 931.7 81.3438V61.9438H896.7V191.244H931.7V107.944C931.7 94.7438 938.8 87.4438 949.7 87.4438C959.7 87.5438 966.1 96.9438 966.1 106.444Z" fill="white"/>
</g>
<defs>
<linearGradient id="paint0_linear" x1="177.16" y1="121.861" x2="176.757" y2="96.1753" gradientUnits="userSpaceOnUse">
<stop stop-color="#358C7B"/>
<stop offset="0.5256" stop-color="#33A65E"/>
</linearGradient>
<linearGradient id="paint1_linear" x1="154.869" y1="155.155" x2="199.05" y2="132.644" gradientUnits="userSpaceOnUse">
<stop stop-color="#222B90"/>
<stop offset="1" stop-color="#367B99"/>
</linearGradient>
<linearGradient id="paint2_linear" x1="0.00784558" y1="178.704" x2="42.872" y2="178.704" gradientUnits="userSpaceOnUse">
<stop stop-color="#FF9900"/>
<stop offset="1" stop-color="#FF8000"/>
</linearGradient>
<linearGradient id="paint3_linear" x1="51.8476" y1="178.704" x2="94.7117" y2="178.704" gradientUnits="userSpaceOnUse">
<stop stop-color="#FF8000"/>
<stop offset="1" stop-color="#CC1953"/>
</linearGradient>
<linearGradient id="paint4_linear" x1="103.688" y1="178.704" x2="146.552" y2="178.704" gradientUnits="userSpaceOnUse">
<stop stop-color="#CC1953"/>
<stop offset="1" stop-color="#241284"/>
</linearGradient>
<linearGradient id="paint5_linear" x1="155.477" y1="178.704" x2="198.341" y2="178.704" gradientUnits="userSpaceOnUse">
<stop stop-color="#222B90"/>
<stop offset="1" stop-color="#3559A6"/>
</linearGradient>
<linearGradient id="paint6_linear" x1="101.996" y1="150.661" x2="148.244" y2="137.137" gradientUnits="userSpaceOnUse">
<stop stop-color="#CC1953"/>
<stop offset="1" stop-color="#241284"/>
</linearGradient>
<linearGradient id="paint7_linear" x1="50.3219" y1="135.543" x2="96.2374" y2="152.255" gradientUnits="userSpaceOnUse">
<stop offset="0.00266984" stop-color="#FFCC00"/>
<stop offset="0.9999" stop-color="#CE1938"/>
</linearGradient>
<linearGradient id="paint8_linear" x1="55.4504" y1="92.643" x2="91.1089" y2="125.547" gradientUnits="userSpaceOnUse">
<stop offset="0.00266984" stop-color="#FFD100"/>
<stop offset="1" stop-color="#FD5A22"/>
</linearGradient>
<clipPath id="clip0">
<rect width="1000" height="191.2" fill="white"/>
</clipPath>
</defs>
</svg>
