<svg width="85" height="21" viewBox="0 0 85 21" fill="none" xmlns="http://www.w3.org/2000/svg">
<g clip-path="url(#clip0)">
<path d="M35.4004 20.1V6.60002H35.3004L29.9004 20.1H27.8004L22.4004 6.60002H22.3004V20.1H19.8004V1.80002H23.0004L28.8004 16.4H28.9004L34.7004 1.80002H38.0004V20.1H35.4004ZM52.1004 20.1H49.5004V17.8H49.4004C48.7004 19.4 47.3004 20.3 45.3004 20.3C42.4004 20.3 40.7004 18.4 40.7004 15.3V6.70002H43.4004V14.8C43.4004 16.8 44.4004 17.9 46.2004 17.9C48.2004 17.9 49.3004 16.5 49.3004 14.4V6.70002H52.0004L52.1004 20.1ZM59.5004 6.50002C62.6004 6.50002 64.5004 8.20002 64.6004 10.7H62.1004C61.9004 9.40002 61.0004 8.60003 59.5004 8.60003C58.0004 8.60003 57.0004 9.30002 57.0004 10.4C57.0004 11.2 57.6004 11.8 59.0004 12.1L61.1004 12.6C63.8004 13.2 64.8004 14.3 64.8004 16.2C64.8004 18.6 62.6004 20.3 59.5004 20.3C56.2004 20.3 54.2004 18.7 54.0004 16.1H56.7004C56.9004 17.5 57.9004 18.2 59.5004 18.2C61.1004 18.2 62.1004 17.5 62.1004 16.4C62.1004 15.5 61.6004 15 60.2004 14.7L58.1004 14.2C55.6004 13.6 54.4004 12.4 54.4004 10.4C54.4004 8.10002 56.4004 6.50002 59.5004 6.50002ZM66.8004 3.20002C66.8004 2.30002 67.5004 1.60002 68.4004 1.60002C69.3004 1.60002 70.0004 2.30002 70.0004 3.20002C70.0004 4.10002 69.3004 4.80002 68.4004 4.80002C67.5004 4.80002 66.8004 4.10002 66.8004 3.20002ZM67.0004 6.70002H69.7004V20.1H67.0004V6.70002ZM81.1004 11.3C80.8004 9.90003 79.8004 8.70002 78.0004 8.70002C75.9004 8.70002 74.5004 10.5 74.5004 13.3C74.5004 16.2 75.9004 17.9 78.0004 17.9C79.7004 17.9 80.7004 17 81.1004 15.4H83.7004C83.4004 18.2 81.2004 20.2 78.0004 20.2C74.2004 20.2 71.8004 17.6 71.8004 13.3C71.8004 9.10003 74.2004 6.40002 78.0004 6.40002C81.4004 6.40002 83.4004 8.60002 83.7004 11.2L81.1004 11.3ZM11.5004 3.60002C10.8004 4.40002 9.70045 5.10002 8.60045 5.00002C8.40045 3.80002 9.00045 2.60002 9.60045 1.90002C10.3004 1.00002 11.5004 0.400024 12.5004 0.400024C12.6004 1.50002 12.2004 2.70002 11.5004 3.60002ZM12.5004 5.20002C13.1004 5.20002 14.9004 5.40002 16.1004 7.20002C16.0004 7.30002 14.0004 8.50002 14.0004 11C14.0004 14 16.6004 15 16.6004 15C16.6004 15.1 16.2004 16.4 15.3004 17.8C14.5004 19 13.6004 20.2 12.3004 20.2C11.0004 20.2 10.6004 19.4 9.10045 19.4C7.60045 19.4 7.10045 20.2 5.90044 20.2C4.60045 20.2 3.60045 18.9 2.80045 17.7C1.10045 15.2 -0.199555 10.7 1.60045 7.70002C2.40045 6.20002 4.00044 5.20002 5.60044 5.20002C6.90044 5.20002 8.10045 6.10002 8.80045 6.10002C9.50045 6.10002 10.9004 5.10002 12.5004 5.20002Z" fill="white"/>
</g>
<defs>
<clipPath id="clip0">
<rect width="84.3" height="20.7" fill="white"/>
</clipPath>
</defs>
</svg>
