<svg width="272" height="41" viewBox="0 0 272 41" fill="none" xmlns="http://www.w3.org/2000/svg">
<path d="M128.926 14.884C122.01 14.884 116.628 20.292 116.628 27.676C116.628 35.086 122.01 40.494 128.926 40.494C132.982 40.494 135.972 38.856 137.922 36.334V40H141.796V2.56H137.922V19.044C135.972 16.548 132.982 14.884 128.926 14.884ZM129.394 18.524C134.516 18.524 138.156 22.476 138.156 27.676C138.156 32.902 134.516 36.854 129.394 36.854C124.168 36.854 120.58 32.772 120.58 27.676C120.58 22.606 124.116 18.524 129.394 18.524ZM174.324 17.588C171.958 16.002 168.422 14.91 164.548 14.91C158.646 14.91 154.72 17.718 154.72 22.372C154.72 26.038 157.32 28.508 162.858 29.184L165.796 29.522C169.28 29.938 170.944 31.134 170.944 33.11C170.944 35.71 168.318 37.088 164.158 37.088C159.998 37.088 157.502 35.866 155.63 34.41L153.836 37.322C156.956 39.688 160.934 40.468 164.106 40.468C170.736 40.468 174.948 37.53 174.948 32.85C174.948 28.82 171.906 26.662 166.68 25.986L163.768 25.622C160.544 25.232 158.75 24.218 158.75 22.164C158.75 19.772 161.064 18.29 164.574 18.29C167.902 18.29 171.048 19.512 172.634 20.604L174.324 17.588ZM197.811 14.884C190.245 14.884 185.071 20.396 185.071 27.676C185.071 34.982 190.245 40.494 197.811 40.494C201.451 40.494 204.701 39.142 206.937 36.62L204.519 33.968C202.777 35.658 200.385 36.854 197.707 36.854C192.767 36.854 189.023 33.006 189.023 27.676C189.023 22.372 192.767 18.524 197.707 18.524C200.385 18.524 202.595 19.59 204.441 21.384L206.937 18.758C204.727 16.236 201.451 14.884 197.811 14.884ZM240.514 15.378H236.406L227.8 36.1L219.194 15.378H214.982L225.486 40.052H230.036L240.514 15.378ZM262.172 14.884C259.156 14.884 256.556 16.314 254.866 18.836V15.378H251.018V40H254.892V26.22C254.892 21.566 257.648 18.55 261.496 18.55C262.926 18.55 264.564 18.888 265.76 19.538L266.696 15.716C265.396 15.118 263.94 14.884 262.172 14.884Z" fill="white"/>
<path fill-rule="evenodd" clip-rule="evenodd" d="M86.5839 25.4523H100.856C100.038 22.1859 97.1532 19.7722 93.7198 19.7722C90.2865 19.7722 87.4019 22.1859 86.5839 25.4523ZM105.192 30.4248V30.4717H87.0068C88.1647 33.0948 90.7349 34.9194 93.7198 34.9194L93.7628 34.9191V39.9683L93.7198 39.9686C86.9377 39.9686 81.4395 34.317 81.4395 27.3456C81.4395 20.3743 86.9377 14.7227 93.7198 14.7227C100.502 14.7227 106 20.3743 106 27.3456C106 28.4077 105.872 29.4391 105.632 30.4244H105.192V30.4248Z" fill="white"/>
<path fill-rule="evenodd" clip-rule="evenodd" d="M12.3291 25.5166L24.8315 25.5156C24.8128 28.1435 24.515 28.3346 24.149 30.5076L12.3291 30.5364V25.5166Z" fill="white"/>
<path fill-rule="evenodd" clip-rule="evenodd" d="M39.5167 14.7539C46.2988 14.7539 51.7971 20.4056 51.7971 27.3769C51.7971 34.3482 46.2988 39.9999 39.5167 39.9999C32.7346 39.9999 27.2363 34.3482 27.2363 27.3769C27.2363 20.4056 32.7346 14.7539 39.5167 14.7539ZM39.5167 19.8031C43.5859 19.8031 46.8846 23.1938 46.8846 27.3769C46.8846 31.5596 43.5859 34.9507 39.5167 34.9507C35.4475 34.9507 32.1485 31.5599 32.1485 27.3769C32.1485 23.1942 35.4472 19.8031 39.5167 19.8031Z" fill="white"/>
<path fill-rule="evenodd" clip-rule="evenodd" d="M74.4032 27.6358L74.3557 19.7421H67.0832L67.1044 14.8016L79.2115 14.7227V15.1909V19.7421V26.8477C79.2744 27.0235 79.3095 27.1993 79.3095 27.3693C79.3095 34.3406 73.8115 39.9923 67.0291 39.9923C60.247 39.9923 54.749 34.3406 54.749 27.3693C54.749 26.7176 54.7969 26.0774 54.8896 25.4523H59.8994C59.7439 26.0646 59.6609 26.7071 59.6609 27.3693C59.6609 31.552 62.9596 34.9431 67.0288 34.9431C70.9177 34.9431 74.1029 31.8461 74.3777 27.9206C74.3846 27.8228 74.3933 27.7282 74.4029 27.6358H74.4032Z" fill="white"/>
<path d="M97.3789 13.0492C98.7354 13.0492 99.835 11.9189 99.835 10.5246C99.835 9.1303 98.7354 8 97.3789 8C96.0225 8 94.9229 9.1303 94.9229 10.5246C94.9229 11.9189 96.0225 13.0492 97.3789 13.0492Z" fill="white"/>
<path d="M89.8633 13.0717C91.2198 13.0717 92.3194 11.9414 92.3194 10.5471C92.3194 9.15276 91.2198 8.02246 89.8633 8.02246C88.5069 8.02246 87.4072 9.15276 87.4072 10.5471C87.4072 11.9414 88.5069 13.0717 89.8633 13.0717Z" fill="white"/>
<path fill-rule="evenodd" clip-rule="evenodd" d="M12.2804 39.8838C5.49827 39.8838 0 34.2325 0 27.2612C0 20.2895 5.49827 14.6382 12.2804 14.6382L12.3233 14.6385V19.6877L12.2804 19.6874C8.21118 19.6874 4.91216 23.0781 4.91216 27.2612C4.91216 31.4439 8.21087 34.8346 12.2804 34.8346C16.0433 34.8346 19.1474 31.9351 19.5936 28.1909C19.63 27.886 19.3424 27.2608 19.6486 27.2608H24.5608C24.9121 27.2608 24.5459 27.9797 24.5169 28.3335C23.9874 34.8027 18.7112 39.8838 12.2804 39.8838Z" fill="white"/>
</svg>
